# AST/ASF file generated using VICON BodyLanguage
# -----------------------------------------------
:version 1.10
:name VICON
:units
  mass 1.0
  length 0.45
  angle deg
:documentation
   .ast/.asf automatically generated from VICON data using
   VICON BodyBuilder and BodyLanguage model FoxedUp or BRILLIANT.MOD
:root
   order TX TY TZ RX RY RZ
   axis XYZ
   position 0 0 0  
   orientation 0 -0 0 
:bonedata
  begin
     id 1 
     name lhipjoint
     direction 0.515797 -0.759363 0.396637 
     length 2.47888 
     axis 0 -0 0  XYZ
  end
  begin
     id 2 
     name lfemur
     direction 0.34202 -0.939693 0  
     length 6.81885  
     axis 0 -0 20  XYZ
    dof rx ry rz
    limits (-160.0 20.0)
           (-70.0 70.0)
           (-60.0 70.0)
  end
  begin
     id 3 
     name ltibia
     direction 0.342037 -0.939687 0   
     length 7.89258   
     axis 0 -0 20   XYZ
    dof rx
    limits (-10.0 170.0)
  end
  begin
     id 4 
     name lfoot
     direction 0.173497 -0.476678 0.861787   
     length 2.51543   
     axis -90 -1.13533e-015 20   XYZ
    dof rx rz
    limits (-45.0 90.0)
           (-70.0 20.0)
  end
  begin
     id 5 
     name ltoes
     direction 1.53564e-011 -4.21897e-011 1   
     length 1.21388   
     axis -90 -1.13533e-015 20   XYZ
    dof rx
    limits (-90.0 20.0)
  end
  begin
     id 6 
     name rhipjoint
     direction -0.489454 -0.772941 0.403729   
     length 2.43534  
     axis 0 -0 0  XYZ 
  end
  begin
     id 7 
     name rfemur
     direction -0.34202 -0.939693 0   
     length 7.10357   
     axis 0 -0 -20   XYZ
    dof rx ry rz
    limits (-160.0 20.0)
           (-70.0 70.0)
           (-70.0 60.0)
  end
  begin
     id 8 
     name rtibia
     direction -0.34202 -0.939693 0   
     length 9.16127   
     axis 0 -0 -20   XYZ
    dof rx
    limits (-10.0 170.0)
 end
 begin
     id 9 
     name rfoot
     direction -0.270974 -0.748671 0.605033   
     length 1.74894  
     axis -90 1.13533e-015 -20   XYZ
    dof rx rz
    limits (-45.0 90.0)
           (-20.0 70.0)
  end
  begin
     id 10 
     name rtoes
     direction -1.53557e-011 -4.21759e-011 1   
     length 0.787585   
     axis -90 1.13533e-015 -20   XYZ
    dof rx
    limits (-90.0 20.0)
  end
  begin
     id 11 
     name lowerback
     direction -0.0140249 0.999561 0.0260968   
     length 2.16963   
     axis 0 -0 0   XYZ
    dof rx ry rz
    limits (-20.0 45.0)
           (-30.0 30.0)
           (-30.0 30.0)
  end
  begin
     id 12 
     name upperback
     direction 0.00860018 0.999959 -0.002711   
     length 2.1726   
     axis 0 -0 0   XYZ
    dof rx ry rz
    limits (-20.0 45.0)
           (-30.0 30.0)
           (-30.0 30.0)
  end
  begin
     id 13 
     name thorax
     direction 0.015211 0.999782 -0.0143191   
     length 2.17061   
     axis 0 -0 0   XYZ
    dof rx ry rz
    limits (-20.0 45.0)
           (-30.0 30.0)
           (-30.0 30.0)
  end
  begin
     id 14 
     name lowerneck
     direction -0.0140143 0.999447 0.030145   
     length 2.26749   
     axis 0 -0 0   XYZ
    dof rx ry rz
    limits (-20.0 45.0)
           (-30.0 30.0)
           (-30.0 30.0)
  end
  begin
     id 15 
     name upperneck
     direction 0.118062 0.961438 -0.248392   
     length 2.22728   
     axis 0 -0 0   XYZ
    dof rx ry rz
    limits (-20.0 45.0)
           (-30.0 30.0)
           (-30.0 30.0)
  end
  begin
     id 16
     name head
     direction 0.0431885 0.9954 -0.085514  
     length 2.28786  
     axis 0 -0 0   XYZ
    dof rx ry rz
    limits (-20.0 45.0)
           (-30.0 30.0)
           (-30.0 30.0)
  end
  begin
     id 17 
     name lclavicle
     direction 0.912126 0.409548 0.0172323  
     length 4.31571  
     axis 0 -0 0   XYZ
    dof ry rz
    limits (-20.0 10.0)
           (0.0 20.0)
  end
  begin
     id 18 
     name lhumerus
     direction 1 -4.48977e-011 1.93091e-027   
     length 5.13658   
     axis 180 -30 -90   XYZ
    dof rx ry rz
    limits (-60.0 90.0)
           (-90.0 90.0)
           (-90.0 90.0)
  end
  begin
     id 19
     name lradius
     direction 1 -4.48916e-011 6.84018e-027   
     length 3.22473   
     axis 180 -30 -90   XYZ
    dof rx
    limits (-10.0 170.0)
  end
  begin
     id 20
     name lwrist
     direction 1 -4.48987e-011 7.01981e-027   
     length 1.61236   
     axis -4.37994e-015 90 90   XYZ
    dof ry
    limits (-180.0 0.0)
 end
  begin
     id 21 
     name lhand
     direction 1 -4.49037e-011 1.40335e-026   
     length 0.936406   
     axis -8.96029e-015 90 90   XYZ
    dof rx rz
    limits (-90.0 90.0)
           (-45.0 45.0)
  end
  begin
     id 22 
     name lfingers
     direction 1 -4.48886e-011 2.8104e-026   
     length 0.754955   
     axis -1.79203e-014 90 90   XYZ
    dof rx
    limits (0.0 90.0)
  end
  begin
     id 23
     name lthumb
     direction 0.707107 -6.34937e-011 0.707107   
     length 1.08397   
     axis -90 45 -4.48555e-014   XYZ
    dof rx rz
    limits (-45.0 45.0)
           (-45.0 45.0)
  end
  begin
     id 24 
     name rclavicle
     direction -0.947962 0.317997 0.0156638   
     length 4.86918  
     axis 0 -0 0   XYZ 
    dof ry rz
    limits (-10.0 20.0)
           (-20.0 0.0)
  end
  begin
     id 25 
     name rhumerus
     direction -1 -4.48951e-011 2.80534e-018  
     length 5.60911   
     axis 180 30 90   XYZ
    dof rx ry rz
    limits (-90.0 60.0)
           (-90.0 90.0)
           (-90.0 90.0)
  end
  begin
     id 26 
     name rradius
     direction -1 -4.4898e-011 2.11315e-027   
     length 3.38704   
     axis 180 30 90   XYZ
    dof rx
    limits (-10.0 170.0)
  end
  begin
     id 27 
     name rwrist
     direction -1 -4.48933e-011 7.02314e-027   
     length 1.69352   
     axis -4.37994e-015 -90 -90   XYZ
    dof ry
    limits (-180.0 0.0)
  end
  begin
     id 28
     name rhand
     direction -1 -4.48937e-011 1.40458e-026   
     length 0.755878   
     axis -8.96029e-015 -90 -90   XYZ
    dof rx rz
    limits (-90.0 90.0)
           (-45.0 45.0)
  end
  begin
     id 29
     name rfingers
     direction -1 -4.4901e-011 2.80737e-026   
     length 0.609409   
     axis -1.79203e-014 -90 -90   XYZ
    dof rx
    limits (0.0 90.0)
  end
  begin
     id 30
     name rthumb
     direction -0.707107 -6.34968e-011 0.707107   
     length 0.874992   
     axis -90 -45 4.48555e-014   XYZ
    dof rx rz
    limits (-45.0 45.0)
           (-45.0 45.0)
  end
:hierarchy
  begin
    root lhipjoint rhipjoint lowerback
    lhipjoint lfemur
    lfemur ltibia
    ltibia lfoot
    lfoot ltoes
    rhipjoint rfemur
    rfemur rtibia
    rtibia rfoot
    rfoot rtoes
    lowerback upperback
    upperback thorax
    thorax lowerneck lclavicle rclavicle
    lowerneck upperneck
    upperneck head
    lclavicle lhumerus
    lhumerus lradius
    lradius lwrist
    lwrist lhand lthumb
    lhand lfingers
    rclavicle rhumerus
    rhumerus rradius
    rradius rwrist
    rwrist rhand rthumb
    rhand rfingers
  end

#!OML:ASF C:\ViconDB\ViconDB\414\Spring2016\041811\Spring2016.ASF
:FULLY-SPECIFIED
:DEGREES
139
root 11.1306 17.8205 18.9113 -22.5471 -86.1922 23.6892
lowerback 1.05679 -0.875509 -5.49089
upperback 0.187155 -1.23554 -0.156505
thorax -0.287934 -0.616381 2.93127
lowerneck 7.57037 -12.5081 -28.5313
upperneck 14.1746 -24.2946 28.2201
head 10.6379 -12.899 12.283
rclavicle 8.5291e-015 1.98785e-015
rhumerus -2.4506 -24.2578 -2.27241
rradius 67.728
rwrist 16.9443
rhand -55.5853 -21.836
rfingers 7.12502
rthumb -27.9399 -49.7771
lclavicle 8.5291e-015 1.98785e-015
lhumerus -10.4093 9.47839 1.9055
lradius 44.6906
lwrist 5.71353
lhand -45.2073 36.8075
lfingers 7.12502
lthumb -17.9831 65.9961
rfemur 167.642 20.9151 -180.126
rtibia 31.1692
rfoot -1.37595 -44.9574
rtoes -31.1381
lfemur -12.6408 -9.03511 -12.1327
ltibia 38.3448
lfoot -31.0522 10.0007
ltoes -14.7681
140
root 11.1257 17.82 18.9078 -22.3646 -86.3204 23.463
lowerback 1.01812 -0.843614 -5.41431
upperback 0.201118 -1.18928 -0.166623
thorax -0.257867 -0.594373 2.8767
lowerneck 7.51276 -12.5227 -28.5017
upperneck 14.1725 -24.2973 28.2153
head 10.6438 -12.8936 12.2696
rclavicle -1.37099e-014 2.5842e-015
rhumerus -2.47521 -24.2874 -2.26298
rradius 67.7843
rwrist 17.0345
rhand -55.6507 -22.064
rfingers 7.12502
rthumb -28.0024 -49.995
lclavicle -1.37099e-014 2.5842e-015
lhumerus -10.3911 9.52857 1.87831
lradius 44.6764
lwrist 5.68207
lhand -45.2037 36.8263
lfingers 7.12502
lthumb -17.9796 66.0152
rfemur 167.607 20.912 -180.036
rtibia 31.2014
rfoot -1.54377 -44.9485
rtoes -31.1403
lfemur -12.5396 -8.98649 -12.0619
ltibia 38.3196
lfoot -31.0493 10.0502
ltoes -14.8113
141
root 11.1226 17.8198 18.9036 -22.275 -86.3972 23.3323
lowerback 1.02935 -0.832088 -5.38914
upperback 0.20593 -1.17424 -0.170409
thorax -0.261156 -0.586881 2.85873
lowerneck 7.41532 -12.5137 -28.4784
upperneck 14.1567 -24.2508 28.2259
head 10.6388 -12.8616 12.2725
rclavicle -1.20886e-014 9.74045e-015
rhumerus -2.43312 -24.3203 -2.26871
rradius 67.8169
rwrist 16.9464
rhand -55.7255 -22.0411
rfingers 7.12502
rthumb -28.0739 -49.9603
lclavicle -1.20886e-014 9.74045e-015
lhumerus -10.426 9.48632 1.83594
lradius 44.711
lwrist 5.81919
lhand -45.269 36.9708
lfingers 7.12502
lthumb -18.0425 66.1539
rfemur 167.557 20.8368 -179.987
rtibia 31.2345
rfoot -1.51428 -44.9452
rtoes -31.0561
lfemur -12.4617 -8.901 -12.0067
ltibia 38.2931
lfoot -31.0116 10.0298
ltoes -14.8689
142
root 11.1187 17.8189 18.8991 -21.8946 -86.3986 22.8838
lowerback 0.999908 -0.857868 -5.30944
upperback 0.216772 -1.20617 -0.232347
thorax -0.233643 -0.60395 2.74991
lowerneck 7.38505 -12.4832 -28.399
upperneck 14.2278 -24.2122 28.2045
head 10.6405 -12.8404 12.2625
rclavicle 1.73129e-014 8.15017e-015
rhumerus -2.45832 -24.3516 -2.32284
rradius 67.8882
rwrist 17.1181
rhand -55.6022 -22.0345
rfingers 7.12502
rthumb -27.956 -49.973
lclavicle 1.73129e-014 8.15017e-015
lhumerus -10.438 9.47685 1.68304
lradius 44.6562
lwrist 5.69711
lhand -45.1967 36.7128
lfingers 7.12502
lthumb -17.9729 65.9023
rfemur 167.441 20.697 -179.986
rtibia 31.2618
rfoot -1.32957 -44.901
rtoes -30.998
lfemur -12.3695 -8.88176 -11.9623
ltibia 38.267
lfoot -31.0209 9.99333
ltoes -14.8241
143
root 11.1157 17.8182 18.8958 -22.196 -86.4452 23.1294
lowerback 1.03352 -0.85105 -5.30108
upperback 0.202264 -1.19969 -0.242751
thorax -0.268398 -0.59957 2.73522
lowerneck 7.33264 -12.4666 -28.4101
upperneck 14.2742 -24.179 28.1767
head 10.6519 -12.8218 12.2588
rclavicle 1.16972e-014 1.19271e-014
rhumerus -2.43588 -24.2242 -2.28199
rradius 67.9718
rwrist 16.9621
rhand -55.6668 -22.5266
rfingers 7.12502
rthumb -28.0178 -50.455
lclavicle 1.16972e-014 1.19271e-014
lhumerus -10.5392 9.44221 1.66026
lradius 44.697
lwrist 5.66699
lhand -45.2097 36.7928
lfingers 7.12502
lthumb -17.9854 65.9812
rfemur 167.371 20.678 -179.986
rtibia 31.2944
rfoot -1.42926 -44.9269
rtoes -31.0873
lfemur -12.2744 -8.87576 -11.9601
ltibia 38.2407
lfoot -31.0645 10.0208
ltoes -14.7844
144
root 11.1142 17.819 18.8931 -21.5552 -86.5115 22.4709
lowerback 1.01608 -0.847251 -5.20796
upperback 0.197065 -1.19275 -0.261134
thorax -0.266866 -0.59608 2.66385
lowerneck 7.3523 -12.4078 -28.3953
upperneck 14.1927 -24.0975 28.2719
head 10.6055 -12.7858 12.3175
rclavicle 1.73129e-014 1.11319e-014
rhumerus -2.41469 -24.315 -2.29033
rradius 67.9812
rwrist 17.0925
rhand -55.7587 -22.3556
rfingers 7.12502
rthumb -28.1056 -50.2696
lclavicle 1.73129e-014 1.11319e-014
lhumerus -10.5725 9.41722 1.60992
lradius 44.739
lwrist 5.73856
lhand -45.1525 37.0687
lfingers 7.12502
lthumb -17.9304 66.2621
rfemur 167.345 20.4868 -179.918
rtibia 31.3278
rfoot -1.18795 -44.8853
rtoes -31.0457
lfemur -12.2476 -8.69042 -11.8588
ltibia 38.224
lfoot -31.0128 9.90025
ltoes -14.8379
145
root 11.1114 17.8178 18.8918 -23.2373 -86.6038 24.1571
lowerback 0.958475 -0.823105 -5.24983
upperback 0.189986 -1.15804 -0.288154
thorax -0.244511 -0.579262 2.65827
lowerneck 7.37956 -12.3736 -28.4243
upperneck 14.1126 -24.0477 28.3353
head 10.57 -12.7661 12.361
rclavicle 4.03781e-016 1.59028e-015
rhumerus -2.38338 -24.3154 -2.26742
rradius 68.0393
rwrist 17.1131
rhand -55.8369 -22.193
rfingers 7.12502
rthumb -28.1803 -50.0947
lclavicle 4.03781e-016 1.59028e-015
lhumerus -10.6705 9.38177 1.59663
lradius 44.801
lwrist 5.926
lhand -45.1889 37.0427
lfingers 7.12502
lthumb -17.9654 66.2329
rfemur 167.377 20.7463 -179.933
rtibia 31.3641
rfoot -1.69042 -44.9594
rtoes -31.0085
lfemur -12.1983 -8.68984 -11.9439
ltibia 38.2178
lfoot -31.0397 10.0137
ltoes -14.8204
146
root 11.111 17.8171 18.8856 -21.8622 -86.7231 22.7422
lowerback 0.996162 -0.800626 -5.17844
upperback 0.18017 -1.12942 -0.252887
thorax -0.27883 -0.563774 2.65511
lowerneck 7.32656 -12.3818 -28.4251
upperneck 14.1628 -24.0483 28.2933
head 10.5907 -12.7622 12.3403
rclavicle 1.9425e-014 7.7526e-015
rhumerus -2.34643 -24.3928 -2.23097
rradius 68.0285
rwrist 17.1866
rhand -55.7965 -21.9281
rfingers 7.12502
rthumb -28.1417 -49.8362
lclavicle 1.9425e-014 7.7526e-015
lhumerus -10.6737 9.48043 1.66402
lradius 44.7583
lwrist 6.15844
lhand -45.325 36.9041
lfingers 7.12502
lthumb -18.0963 66.0823
rfemur 167.369 21.2821 -179.713
rtibia 31.3987
rfoot -2.58182 -45.067
rtoes -31.0272
lfemur -12.1446 -8.53077 -11.7674
ltibia 38.2161
lfoot -30.9785 9.90226
ltoes -14.8081
